<?xml version="1.0" encoding="UTF-8" standalone="no"?>
<!DOCTYPE svg PUBLIC "-//W3C//DTD SVG 1.1//EN" "http://www.w3.org/Graphics/SVG/1.1/DTD/svg11.dtd">
<svg version="1.1" xmlns="http://www.w3.org/2000/svg" xmlns:xlink="http://www.w3.org/1999/xlink" preserveAspectRatio="xMidYMid meet" viewBox="0 0 640 640" width="640" height="640">
  <defs>
    <path d="M440.98 74.6C504.3 74.6 555.63 125.93 555.63 189.25C555.63 212.18 555.63 166.32 555.63 189.25C555.63 252.58 504.3 303.91 440.98 303.91C365.75 303.91 254.71 303.91 179.48 303.91C116.16 303.91 64.83 252.58 64.83 189.25C64.83 166.32 64.83 212.18 64.83 189.25C64.83 125.93 116.16 74.6 179.48 74.6C254.71 74.6 365.75 74.6 440.98 74.6Z" id="a2saWbrzmT"></path>
    <path d="M440.98 247.41C504.3 247.41 555.63 298.75 555.63 362.07C555.63 385 555.63 339.14 555.63 362.07C555.63 425.39 504.3 476.72 440.98 476.72C365.75 476.72 254.71 476.72 179.48 476.72C116.16 476.72 64.83 425.39 64.83 362.07C64.83 339.14 64.83 385 64.83 362.07C64.83 298.75 116.16 247.41 179.48 247.41C254.71 247.41 365.75 247.41 440.98 247.41Z" id="cfCiVJFU3"></path>
    <path d="M64.83 185.06L555.63 185.06L555.63 362.07L64.83 362.07L64.83 185.06Z" id="a14iBKujQ3"></path><path d="M532.64 189.25C532.64 238.1 492.21 277.76 442.41 277.76C392.61 277.76 352.18 238.1 352.18 189.25C352.18 140.41 392.61 100.75 442.41 100.75C492.21 100.75 532.64 140.41 532.64 189.25Z" id="aamUtu3vc"></path>
  </defs>
  <g>
    <g>
      <g>
        <use xlink:href="#a2saWbrzmT" opacity="1" fill="#2dc1d7" fill-opacity="1"></use>
      </g>
      <g>
        <use xlink:href="#cfCiVJFU3" opacity="1" fill="#b7b7b7" fill-opacity="1"></use>
      </g>
      <g>
        <use xlink:href="#a14iBKujQ3" opacity="1" fill="#b6b7b7" fill-opacity="1"></use>
      </g>
      <g>
        <use xlink:href="#aamUtu3vc" opacity="1" fill="#630ba2" fill-opacity="1"></use>
      </g>
    </g>
  </g>
</svg>